<svg width="1920" height="1080" viewBox="0 0 1920 1080" xmlns="http://www.w3.org/2000/svg"><path d="M1920,1080C1600.6666666666667,1098.8333333333333,275.6666666666667,1119.6666666666667,0,1080C-275.6666666666667,1040.3333333333333,176.66666666666669,844.5,266,842C355.3333333333333,839.5,443.3333333333333,1061,536,1065C628.6666666666666,1069,730,888.8333333333334,822,866C914,843.1666666666666,998.1666666666666,916.3333333333334,1088,928C1177.8333333333333,939.6666666666666,1270.3333333333333,951.5,1361,936C1451.6666666666667,920.5,1539.5,829.8333333333334,1632,835C1724.5,840.1666666666666,1868,926.1666666666666,1916,967C1964,1007.8333333333334,2239.3333333333335,1061.1666666666667,1920,1080C1600.6666666666667,1098.8333333333333,275.6666666666667,1119.6666666666667,0,1080" fill="#181a1b"/></svg>