<?xml version="1.0" standalone="no"?>
<svg xmlns:xlink="http://www.w3.org/1999/xlink" id="wave" style="transform:rotate(0deg); transition: 0.3s" viewBox="0 0 1440 220" version="1.1" xmlns="http://www.w3.org/2000/svg"><defs><linearGradient id="sw-gradient-0" x1="0" x2="0" y1="1" y2="0"><stop stop-color="rgba(255, 255, 255, 1)" offset="0%"/><stop stop-color="rgba(255, 255, 255, 1)" offset="100%"/></linearGradient></defs><path style="transform:translate(0, 0px); opacity:1" fill="url(#sw-gradient-0)" d="M0,66L80,77C160,88,320,110,480,102.7C640,95,800,59,960,47.7C1120,37,1280,51,1440,77C1600,103,1760,139,1920,157.7C2080,176,2240,176,2400,165C2560,154,2720,132,2880,113.7C3040,95,3200,81,3360,66C3520,51,3680,37,3840,25.7C4000,15,4160,7,4320,29.3C4480,51,4640,103,4800,102.7C4960,103,5120,51,5280,55C5440,59,5600,117,5760,121C5920,125,6080,73,6240,73.3C6400,73,6560,125,6720,150.3C6880,176,7040,176,7200,168.7C7360,161,7520,147,7680,117.3C7840,88,8000,44,8160,51.3C8320,59,8480,117,8640,117.3C8800,117,8960,59,9120,51.3C9280,44,9440,88,9600,110C9760,132,9920,132,10080,143C10240,154,10400,176,10560,165C10720,154,10880,110,11040,99C11200,88,11360,110,11440,121L11520,132L11520,220L11440,220C11360,220,11200,220,11040,220C10880,220,10720,220,10560,220C10400,220,10240,220,10080,220C9920,220,9760,220,9600,220C9440,220,9280,220,9120,220C8960,220,8800,220,8640,220C8480,220,8320,220,8160,220C8000,220,7840,220,7680,220C7520,220,7360,220,7200,220C7040,220,6880,220,6720,220C6560,220,6400,220,6240,220C6080,220,5920,220,5760,220C5600,220,5440,220,5280,220C5120,220,4960,220,4800,220C4640,220,4480,220,4320,220C4160,220,4000,220,3840,220C3680,220,3520,220,3360,220C3200,220,3040,220,2880,220C2720,220,2560,220,2400,220C2240,220,2080,220,1920,220C1760,220,1600,220,1440,220C1280,220,1120,220,960,220C800,220,640,220,480,220C320,220,160,220,80,220L0,220Z"/></svg>